<svg width="19" height="18" viewBox="0 0 19 18" fill="none" xmlns="http://www.w3.org/2000/svg">
<path d="M10.9944 1.74364H11.4944V1.7224L11.4926 1.70124L10.9944 1.74364ZM10.9944 1.74364L11.4926 1.70124L11.4919 1.69385L10.9944 1.74364ZM10.9944 1.74364L10.4944 1.74366V1.76859L10.4969 1.79341L10.9944 1.74364ZM15.515 3.43563L15.1614 3.78918L15.1671 3.79488L15.173 3.80039L15.515 3.43563ZM15.515 3.43563L15.8685 3.08208L15.8628 3.07638L15.8569 3.07087L15.515 3.43563ZM15.5999 5.13778L15.2129 4.82114L15.2094 4.82543L15.5999 5.13778ZM15.5999 5.13778L15.9869 5.45443L15.9903 5.45014L15.5999 5.13778ZM13.0623 15.3995L13.3789 15.0125L13.36 14.997L13.3396 14.9835L13.0623 15.3995ZM13.0623 15.3995L12.7457 15.7865L12.7646 15.8019L12.7849 15.8155L13.0623 15.3995ZM2.80019 12.8622L2.4239 12.533L2.41845 12.5392L2.41321 12.5456L2.80019 12.8622ZM2.80019 12.8622L3.17649 13.1915L3.18194 13.1853L3.18718 13.1789L2.80019 12.8622ZM2.8003 5.13753L2.4003 5.43753L2.40663 5.44597L2.41332 5.45414L2.8003 5.13753ZM2.8003 5.13753L3.20029 4.83752L3.19396 4.82908L3.18727 4.8209L2.8003 5.13753ZM7.40571 1.74351L6.91249 1.66131L6.9098 1.67747L6.90817 1.69376L7.40571 1.74351ZM7.40571 1.74351L7.89891 1.8257L7.90161 1.80955L7.90321 1.79325L7.40571 1.74351ZM11.5772 2.33539C11.5739 2.32728 11.5613 2.29012 11.5449 2.1751C11.5289 2.06319 11.5139 1.91379 11.4919 1.69385L10.4969 1.79341C10.518 2.00457 10.5353 2.17855 10.5549 2.31607C10.574 2.45049 10.6001 2.58888 10.6526 2.71632L11.5772 2.33539ZM12.2317 2.6065C11.9761 2.71294 11.6827 2.59139 11.5772 2.33539L10.6526 2.71632C10.969 3.48434 11.8493 3.84898 12.6162 3.52965L12.2317 2.6065ZM12.7456 2.21322C12.5746 2.35318 12.4583 2.44815 12.3679 2.51602C12.275 2.58577 12.2398 2.60313 12.2317 2.6065L12.6162 3.52965C12.7435 3.47666 12.8597 3.39726 12.9683 3.31574C13.0794 3.23235 13.2146 3.12156 13.3789 2.98717L12.7456 2.21322ZM13.1824 1.89394C13.0394 1.96969 12.9049 2.08288 12.7456 2.21322L13.3789 2.98717C13.5745 2.82712 13.6174 2.79513 13.6505 2.77761L13.1824 1.89394ZM14.7151 1.97039C14.2569 1.66569 13.6687 1.63635 13.1824 1.89394L13.6505 2.77761C13.8126 2.69175 14.0087 2.70153 14.1614 2.80309L14.7151 1.97039ZM15.118 2.33154C14.9724 2.186 14.8499 2.05999 14.7151 1.97039L14.1614 2.80309C14.1926 2.82381 14.2322 2.85993 14.4109 3.03865L15.118 2.33154ZM15.8685 3.08208L15.118 2.33154L14.4109 3.03865L15.1614 3.78918L15.8685 3.08208ZM16.2296 3.48488C16.1401 3.35015 16.0141 3.22761 15.8685 3.08208L15.1614 3.78918C15.3401 3.96788 15.3762 4.00746 15.397 4.03861L16.2296 3.48488ZM16.3061 5.01766C16.5637 4.53139 16.5344 3.94311 16.2296 3.48488L15.397 4.03861C15.4986 4.19135 15.5083 4.38745 15.4224 4.54954L16.3061 5.01766ZM15.9869 5.45443C16.1173 5.29516 16.2304 5.16064 16.3061 5.01766L15.4224 4.54954C15.4049 4.5826 15.3729 4.62554 15.2129 4.82114L15.9869 5.45443ZM15.5936 5.96828C15.597 5.96018 15.6143 5.92499 15.6841 5.83209C15.7519 5.7417 15.847 5.62548 15.9869 5.45443L15.2129 4.82114C15.0785 4.98537 14.9677 5.12064 14.8843 5.23172C14.8028 5.3403 14.7234 5.45659 14.6704 5.58383L15.5936 5.96828ZM15.8647 6.62281C15.6087 6.51734 15.4871 6.22389 15.5936 5.96828L14.6704 5.58383C14.3511 6.35066 14.7157 7.23101 15.4838 7.54741L15.8647 6.62281ZM16.5062 6.7081C16.2862 6.6861 16.1369 6.67107 16.025 6.65513C15.91 6.63875 15.8728 6.62615 15.8647 6.62281L15.4838 7.54741C15.6112 7.59991 15.7496 7.62601 15.884 7.64511C16.0215 7.66471 16.1955 7.68201 16.4067 7.70311L16.5062 6.7081ZM17.0408 6.79118C16.8861 6.74364 16.711 6.72858 16.5062 6.7081L16.4067 7.70311C16.6582 7.72831 16.7112 7.73601 16.7469 7.74701L17.0408 6.79118ZM18.0705 7.92901C17.962 7.38961 17.5668 6.95288 17.0408 6.79118L16.7469 7.74701C16.9223 7.80091 17.054 7.94651 17.0902 8.12631L18.0705 7.92901ZM18.1 8.46931C18.1 8.26341 18.1025 8.08771 18.0705 7.92901L17.0902 8.12631C17.0976 8.16301 17.1 8.21651 17.1 8.46931H18.1ZM18.1 9.53071V8.46931H17.1V9.53071H18.1ZM18.0706 10.0708C18.1025 9.91221 18.1 9.73651 18.1 9.53071H17.1C17.1 9.78341 17.0976 9.83691 17.0902 9.87361L18.0706 10.0708ZM17.0407 11.2088C17.5667 11.0471 17.962 10.6103 18.0706 10.0708L17.0902 9.87361C17.054 10.0534 16.9223 10.199 16.7469 10.2529L17.0407 11.2088ZM16.5062 11.2918C16.711 11.2714 16.8861 11.2563 17.0407 11.2088L16.7469 10.2529C16.7112 10.2639 16.6582 10.2717 16.4067 10.2968L16.5062 11.2918ZM15.865 11.3771C15.8731 11.3738 15.9102 11.3612 16.0252 11.3448C16.1371 11.3289 16.2864 11.3138 16.5062 11.2918L16.4067 10.2968C16.1956 10.3179 16.0217 10.3352 15.8843 10.3548C15.7499 10.3739 15.6116 10.4 15.4842 10.4524L15.865 11.3771ZM15.5938 12.0317C15.4873 11.7761 15.6089 11.4825 15.865 11.3771L15.4842 10.4524C14.716 10.7688 14.3512 11.6493 14.6707 12.4163L15.5938 12.0317ZM15.9869 12.5453C15.847 12.3744 15.7521 12.2582 15.6843 12.1678C15.6146 12.075 15.5972 12.0398 15.5938 12.0317L14.6707 12.4163C14.7237 12.5434 14.8031 12.6597 14.8846 12.7682C14.9679 12.8792 15.0787 13.0144 15.213 13.1786L15.9869 12.5453ZM16.3061 12.9819C16.2303 12.839 16.1172 12.7046 15.9869 12.5453L15.213 13.1786C15.373 13.3741 15.4049 13.4171 15.4225 13.4501L16.3061 12.9819ZM16.2296 14.5149C16.5344 14.0566 16.5638 13.4682 16.3061 12.9819L15.4225 13.4501C15.5084 13.6122 15.4986 13.8083 15.397 13.9611L16.2296 14.5149ZM15.8686 14.9175C16.0141 14.7721 16.14 14.6496 16.2296 14.5149L15.397 13.9611C15.3763 13.9922 15.3402 14.0318 15.1615 14.2104L15.8686 14.9175ZM15.118 15.6681L15.8686 14.9175L15.1615 14.2104L14.4109 14.961L15.118 15.6681ZM14.7152 16.0293C14.8499 15.9397 14.9725 15.8137 15.118 15.6681L14.4109 14.961C14.2322 15.1398 14.1926 15.1759 14.1615 15.1966L14.7152 16.0293ZM13.1824 16.1057C13.6687 16.3633 14.257 16.334 14.7152 16.0293L14.1615 15.1966C14.0087 15.2981 13.8126 15.3079 13.6505 15.2221L13.1824 16.1057ZM12.7457 15.7865C12.905 15.9168 13.0394 16.03 13.1824 16.1057L13.6505 15.2221C13.6175 15.2046 13.5745 15.1726 13.3789 15.0125L12.7457 15.7865ZM12.2318 15.3932C12.2398 15.3965 12.275 15.4139 12.3679 15.4837C12.4584 15.5515 12.5746 15.6465 12.7457 15.7865L13.3789 15.0125C13.2147 14.8781 13.0794 14.7673 12.9683 14.6839C12.8597 14.6024 12.7434 14.523 12.6162 14.47L12.2318 15.3932ZM11.5772 15.6643C11.6827 15.4083 11.9761 15.2867 12.2318 15.3932L12.6162 14.47C11.8494 14.1507 10.9691 14.5153 10.6526 15.2834L11.5772 15.6643ZM11.4919 16.3059C11.5139 16.086 11.529 15.9366 11.5449 15.8246C11.5613 15.7096 11.5739 15.6724 11.5772 15.6643L10.6526 15.2834C10.6001 15.4108 10.574 15.5492 10.5549 15.6837C10.5353 15.8212 10.518 15.9952 10.4969 16.2064L11.4919 16.3059ZM11.4088 16.8409C11.4564 16.6862 11.4714 16.5109 11.4919 16.3059L10.4969 16.2064C10.4717 16.4581 10.464 16.5112 10.4529 16.547L11.4088 16.8409ZM10.2711 17.8705C10.8104 17.7619 11.2471 17.3668 11.4088 16.8409L10.4529 16.547C10.399 16.7223 10.2535 16.854 10.0737 16.8902L10.2711 17.8705ZM9.73061 17.9C9.93651 17.9 10.1124 17.9025 10.2711 17.8705L10.0737 16.8902C10.037 16.8976 9.98351 16.9 9.73061 16.9V17.9ZM8.66931 17.9H9.73061V16.9H8.66931V17.9ZM8.12911 17.8705C8.28771 17.9025 8.46351 17.9 8.66931 17.9V16.9C8.41661 16.9 8.36311 16.8976 8.32641 16.8902L8.12911 17.8705ZM6.99125 16.8408C7.15291 17.3668 7.58961 17.762 8.12911 17.8705L8.32641 16.8902C8.14661 16.854 8.00101 16.7223 7.94711 16.5469L6.99125 16.8408ZM6.90816 16.3061C6.92864 16.511 6.94369 16.6861 6.99125 16.8408L7.94711 16.5469C7.93611 16.5112 7.92831 16.4582 7.90321 16.2066L6.90816 16.3061ZM6.82286 15.6646C6.8262 15.6728 6.83881 15.7099 6.85519 15.8249C6.87112 15.9369 6.88616 16.0862 6.90816 16.3061L7.90321 16.2066C7.88211 15.9955 7.86481 15.8215 7.84521 15.684C7.82601 15.5495 7.80001 15.4112 7.74741 15.2837L6.82286 15.6646ZM6.16835 15.3935C6.42395 15.2871 6.71738 15.4086 6.82286 15.6646L7.74741 15.2837C7.43101 14.5157 6.55073 14.1511 5.78393 14.4704L6.16835 15.3935ZM5.65441 15.7869C5.82549 15.6469 5.94173 15.5519 6.03214 15.484C6.12506 15.4143 6.16025 15.3969 6.16835 15.3935L5.78393 14.4704C5.65668 14.5234 5.54036 14.6028 5.43178 14.6843C5.32068 14.7677 5.18543 14.8785 5.02117 15.0129L5.65441 15.7869ZM5.21758 16.1062C5.36058 16.0304 5.49509 15.9172 5.65441 15.7869L5.02117 15.0129C4.82552 15.173 4.78255 15.205 4.74948 15.2225L5.21758 16.1062ZM3.68488 16.0297C4.14309 16.3344 4.73133 16.3637 5.21758 16.1062L4.74948 15.2225C4.5874 15.3083 4.39132 15.2986 4.23858 15.197L3.68488 16.0297ZM3.282 15.6685C3.42755 15.8141 3.55012 15.9401 3.68488 16.0297L4.23858 15.197C4.20742 15.1763 4.16785 15.1402 3.98911 14.9614L3.282 15.6685ZM2.53153 14.9181L3.282 15.6685L3.98911 14.9614L3.23863 14.211L2.53153 14.9181ZM2.17031 14.5151C2.25992 14.6499 2.38596 14.7725 2.53153 14.9181L3.23863 14.211C3.05988 14.0322 3.02376 13.9926 3.00304 13.9615L2.17031 14.5151ZM2.09387 12.9825C1.83632 13.4687 1.86565 14.057 2.17031 14.5151L3.00304 13.9615C2.90148 13.8087 2.89171 13.6127 2.97756 13.4506L2.09387 12.9825ZM2.41321 12.5456C2.28285 12.705 2.16963 12.8395 2.09387 12.9825L2.97756 13.4506C2.99508 13.4175 3.02709 13.3745 3.18718 13.1789L2.41321 12.5456ZM2.80654 12.0316C2.80317 12.0397 2.78581 12.0749 2.71605 12.1679C2.64818 12.2583 2.55319 12.3745 2.41321 12.5456L3.18718 13.1789C3.32157 13.0146 3.43238 12.8793 3.51578 12.7682C3.5973 12.6596 3.67672 12.5433 3.72971 12.4161L2.80654 12.0316ZM2.53544 11.3771C2.79143 11.4825 2.91297 11.7761 2.80654 12.0316L3.72971 12.4161C4.049 11.6493 3.68438 10.769 2.9164 10.4526L2.53544 11.3771ZM1.8939 11.2918C2.11386 11.3138 2.26322 11.3289 2.37514 11.3448C2.49017 11.3612 2.52733 11.3738 2.53544 11.3771L2.9164 10.4526C2.78895 10.4 2.65055 10.3739 2.51611 10.3548C2.37858 10.3352 2.20459 10.3179 1.9934 10.2968L1.8939 11.2918ZM1.35923 11.2087C1.51391 11.2562 1.68908 11.2714 1.8939 11.2918L1.9934 10.2968C1.74188 10.2717 1.68887 10.2639 1.6531 10.2529L1.35923 11.2087ZM0.329511 10.0709C0.438071 10.6104 0.833281 11.0471 1.35923 11.2087L1.6531 10.2529C1.47778 10.199 1.34604 10.0534 1.30986 9.87361L0.329511 10.0709ZM0.300031 9.53061C0.300031 9.73651 0.297581 9.91231 0.329511 10.0709L1.30986 9.87361C1.30247 9.83691 1.30003 9.78341 1.30003 9.53061H0.300031ZM0.300031 8.46941V9.53061H1.30003V8.46941H0.300031ZM0.329531 7.92891C0.297581 8.08761 0.300031 8.26351 0.300031 8.46941H1.30003C1.30003 8.21651 1.30247 8.16301 1.30986 8.12631L0.329531 7.92891ZM1.35915 6.79122C0.833261 6.95293 0.438111 7.38961 0.329531 7.92891L1.30986 8.12631C1.34606 7.94651 1.47777 7.80091 1.65307 7.74701L1.35915 6.79122ZM1.89398 6.70809C1.68909 6.72858 1.51388 6.74364 1.35915 6.79122L1.65307 7.74701C1.68885 7.73601 1.74188 7.72831 1.99348 7.70311L1.89398 6.70809ZM2.53572 6.62275C2.52761 6.62609 2.49043 6.63871 2.37537 6.6551C2.26341 6.67104 2.114 6.68609 1.89398 6.70809L1.99348 7.70311C2.20473 7.68201 2.37877 7.66471 2.51635 7.64511C2.65083 7.62591 2.78927 7.59981 2.91676 7.54731L2.53572 6.62275ZM2.80679 5.96831C2.91319 6.22389 2.79166 6.51726 2.53572 6.62275L2.91676 7.54731C3.68461 7.23081 4.04917 6.35071 3.72999 5.58399L2.80679 5.96831ZM2.41332 5.45414C2.55335 5.6253 2.64837 5.7416 2.71627 5.83205C2.78606 5.925 2.80342 5.96021 2.80679 5.96831L3.72999 5.58399C3.677 5.45669 3.59756 5.34032 3.51601 5.23169C3.43257 5.12055 3.32172 4.98523 3.18727 4.8209L2.41332 5.45414ZM2.09385 5.01708C2.16962 5.16016 2.2829 5.29474 2.41332 5.45414L3.18727 4.8209C3.02711 4.62515 2.9951 4.58216 2.97757 4.54907L2.09385 5.01708ZM2.17028 3.48463C1.86571 3.94277 1.83638 4.5309 2.09385 5.01708L2.97757 4.54907C2.89175 4.38701 2.90153 4.19097 3.00305 4.03825L2.17028 3.48463ZM2.53163 3.08155C2.38601 3.22717 2.25992 3.3498 2.17028 3.48463L3.00305 4.03825C3.02378 4.00707 3.05991 3.96748 3.23874 3.78865L2.53163 3.08155ZM3.28203 2.33115L2.53163 3.08155L3.23874 3.78865L3.98914 3.03825L3.28203 2.33115ZM3.68492 1.96996C3.55016 2.05956 3.42759 2.18559 3.28203 2.33115L3.98914 3.03825C4.16788 2.85951 4.20745 2.8234 4.23862 2.80267L3.68492 1.96996ZM5.21761 1.89351C4.73136 1.63594 4.14312 1.66528 3.68492 1.96996L4.23862 2.80267C4.39135 2.70112 4.58743 2.69134 4.74952 2.77719L5.21761 1.89351ZM5.6545 2.21288C5.49515 2.0825 5.36062 1.96927 5.21761 1.89351L4.74952 2.77719C4.78258 2.79471 4.82557 2.82672 5.02126 2.98683L5.6545 2.21288ZM6.16832 2.60611C6.16024 2.60274 6.12505 2.58538 6.03216 2.51564C5.94177 2.44778 5.82554 2.35282 5.6545 2.21288L5.02126 2.98683C5.18548 3.1212 5.3207 3.23196 5.43177 3.31535C5.54031 3.39684 5.65658 3.47623 5.78378 3.52922L6.16832 2.60611ZM6.82292 2.33497C6.71746 2.59103 6.42396 2.7126 6.16832 2.60611L5.78378 3.52922C6.55068 3.84869 7.43121 3.48398 7.74761 2.71579L6.82292 2.33497ZM6.90817 1.69376C6.88618 1.9136 6.87115 2.06288 6.85522 2.17475C6.83886 2.28972 6.82626 2.32686 6.82292 2.33497L7.74761 2.71579C7.80001 2.58839 7.82611 2.45006 7.84521 2.3157C7.86481 2.17823 7.88211 2.00432 7.90321 1.79325L6.90817 1.69376ZM6.9912 1.15937C6.94369 1.31398 6.92864 1.48905 6.90817 1.69376L7.90321 1.79325C7.92831 1.54187 7.93611 1.48889 7.94711 1.45313L6.9912 1.15937ZM8.12921 0.129469C7.58971 0.237999 7.15291 0.633289 6.9912 1.15937L7.94711 1.45313C8.00101 1.27777 8.14661 1.14601 8.32641 1.10983L8.12921 0.129469ZM8.66921 0.100019C8.46351 0.100019 8.28781 0.0975692 8.12921 0.129469L8.32641 1.10983C8.36311 1.10246 8.41661 1.10002 8.66921 1.10002V0.100019ZM9.73071 0.100019H8.66921V1.10002H9.73071V0.100019ZM10.271 0.129499C10.1123 0.097569 9.93651 0.100019 9.73071 0.100019V1.10002C9.98351 1.10002 10.037 1.10246 10.0737 1.10984L10.271 0.129499ZM11.4088 1.15923C11.2471 0.633269 10.8104 0.238059 10.271 0.129499L10.0737 1.10984C10.2535 1.14603 10.3991 1.27777 10.453 1.45309L11.4088 1.15923ZM11.4919 1.69385C11.4714 1.48906 11.4564 1.3139 11.4088 1.15923L10.453 1.45309C10.464 1.48885 10.4717 1.54191 10.4969 1.79341L11.4919 1.69385ZM12.06 9.00001C12.06 10.5795 10.7796 11.86 9.20001 11.86V12.86C11.3319 12.86 13.06 11.1318 13.06 9.00001H12.06ZM9.20001 6.13998C10.7796 6.13998 12.06 7.42041 12.06 9.00001H13.06C13.06 6.86816 11.3319 5.13998 9.20001 5.13998V6.13998ZM6.34004 9.00001C6.34004 7.42041 7.62051 6.13998 9.20001 6.13998V5.13998C7.06821 5.13998 5.34004 6.86816 5.34004 9.00001H6.34004ZM9.20001 11.86C7.62051 11.86 6.34004 10.5795 6.34004 9.00001H5.34004C5.34004 11.1318 7.06821 12.86 9.20001 12.86V11.86Z" fill="#4998EE"/>
</svg>
