<svg width="25" height="24" viewBox="0 0 25 24" fill="none" xmlns="http://www.w3.org/2000/svg">
<path d="M15.8 15C15.8 14.4477 15.3523 14 14.8 14C14.2477 14 13.8 14.4477 13.8 15C13.8 15.5523 14.2477 16 14.8 16C15.3523 16 15.8 15.5523 15.8 15Z" fill="#9B53F8"/>
<path d="M10.8 14H6.80005" stroke="#9B53F8" stroke-linecap="round"/>
<path d="M8.80005 12V16" stroke="#9B53F8" stroke-linecap="round"/>
<path d="M18.8 13C18.8 12.4477 18.3523 12 17.8 12C17.2477 12 16.8 12.4477 16.8 13C16.8 13.5523 17.2477 14 17.8 14C18.3523 14 18.8 13.5523 18.8 13Z" fill="#9B53F8"/>
<path d="M14.8 8C14.8 7.58326 14.8 7.37488 14.7655 7.19144C14.6456 6.5546 14.2245 6.01534 13.6358 5.74455C13.4662 5.66654 13.2641 5.616 12.8598 5.51493L12.8 5.5C12.3389 5.3847 12.1083 5.32706 11.9171 5.233C11.3687 4.96315 10.9737 4.45731 10.8449 3.85979C10.8 3.65151 10.8 3.41382 10.8 2.93845V2" stroke="#9B53F8" stroke-linecap="round"/>
<path d="M4 14C4 11.4412 4 10.1618 4.61994 9.28042C4.77954 9.05351 4.96572 8.85041 5.17371 8.6763C5.98164 8 7.15442 8 9.5 8H16.4999C18.8455 8 20.0184 8 20.8263 8.6763C21.0343 8.85041 21.2204 9.05351 21.38 9.28042C21.9999 10.1618 21.9999 11.4412 21.9999 14C21.9999 16.5588 21.9999 17.8382 21.38 18.7196C21.2204 18.9465 21.0343 19.1496 20.8263 19.3237C20.0184 20 18.8455 20 16.4999 20H9.5C7.15442 20 5.98164 20 5.17371 19.3237C4.96572 19.1496 4.77954 18.9465 4.61994 18.7196C4 17.8382 4 16.5588 4 14Z" stroke="#9B53F8"/>
</svg>
