<svg width="19" height="20" viewBox="0 0 19 20" fill="none" xmlns="http://www.w3.org/2000/svg">
<path d="M11.395 9C11.395 9.3975 11.2766 9.7859 11.0548 10.1158C10.8331 10.4456 10.5181 10.702 10.15 10.852V13.25C10.15 13.4489 10.071 13.6397 9.9304 13.7803C9.7897 13.921 9.5989 14 9.4 14C9.2011 14 9.01031 13.921 8.86971 13.7803C8.729 13.6397 8.65 13.4489 8.65 13.25V10.856C8.313 10.7207 8.01921 10.4963 7.80011 10.2067C7.58101 9.9172 7.4449 9.5734 7.4063 9.2124C7.3678 8.8513 7.4282 8.4866 7.5812 8.1573C7.7342 7.82794 7.97401 7.5465 8.27481 7.34311C8.57561 7.13973 8.9261 7.02207 9.2887 7.00276C9.65131 6.98346 10.0123 7.06323 10.333 7.23353C10.6537 7.40383 10.922 7.65822 11.1091 7.96942C11.2962 8.2806 11.395 8.6369 11.395 9ZM1.15002 3C0.951115 3 0.760354 3.07902 0.619694 3.21967C0.479044 3.36032 0.400024 3.55109 0.400024 3.75V9C0.400024 14.001 3.35802 17.676 9.125 19.948C9.3017 20.0176 9.49831 20.0176 9.675 19.948C15.442 17.676 18.4 14 18.4 9V3.75C18.4 3.55109 18.321 3.36032 18.1804 3.21967C18.0397 3.07902 17.8489 3 17.65 3C14.987 3 12.392 2.057 9.85001 0.15C9.72021 0.0526301 9.5623 0 9.4 0C9.2377 0 9.0798 0.0526301 8.95 0.15C6.40802 2.057 3.81302 3 1.15002 3ZM1.90002 9V4.478C4.47702 4.326 6.98002 3.388 9.4 1.678C11.82 3.388 14.323 4.326 16.9 4.478V9C16.9 13.256 14.447 16.379 9.4 18.442C4.35302 16.379 1.90002 13.256 1.90002 9Z" fill="#F25D5D"/>
</svg>
